<svg width="37" height="32" viewBox="0 0 37 32" fill="none" xmlns="http://www.w3.org/2000/svg">
<path d="M33.9244 18.8324L36.961 5.83244C37.1803 4.89381 36.447 4 35.4577 4H10.2269L9.63812 1.19938C9.4914 0.501313 8.86009 0 8.12773 0H1.54167C0.690217 0 0 0.671562 0 1.5V2.5C0 3.32844 0.690217 4 1.54167 4H6.03068L10.5431 25.4647C9.46359 26.0687 8.73611 27.2014 8.73611 28.5C8.73611 30.433 10.3466 32 12.3333 32C14.32 32 15.9306 30.433 15.9306 28.5C15.9306 27.5204 15.5164 26.6353 14.8499 26H28.3168C27.6502 26.6353 27.2361 27.5204 27.2361 28.5C27.2361 30.433 28.8466 32 30.8333 32C32.82 32 34.4306 30.433 34.4306 28.5C34.4306 27.1142 33.6027 25.9168 32.4021 25.3497L32.7564 23.8324C32.9757 22.8938 32.2424 22 31.2531 22H14.011L13.5906 20H32.4211C33.1409 20 33.7649 19.5154 33.9244 18.8324Z" fill="black"/>
</svg>
