<svg width="16" height="16" viewBox="0 0 16 16" fill="none" xmlns="http://www.w3.org/2000/svg">
<path d="M8.0129 16C3.43871 16 0 12.4484 0 8C0 3.25484 3.82258 0 8.0129 0C12.3355 0 16 3.53226 16 8C16 12.2871 12.6226 16 8.0129 16ZM7.9871 14.5581C11.8 14.5581 14.5581 11.4 14.5581 8C14.5581 4.45806 11.6161 1.45806 7.9871 1.45806C4.65806 1.45806 1.44516 4.07419 1.44516 8C1.44193 11.671 4.35484 14.5581 7.9871 14.5581ZM11.5581 9.12903C11.1387 11.8355 8.96129 12.2161 8.04516 12.2161C4.82581 12.2161 3.93226 9.55484 3.93226 7.8871C3.93226 5.83548 5.25484 3.6 8.09032 3.6C9.34516 3.6 11.2871 4.24516 11.6194 6.72903L9.60323 6.72903C9.55484 5.75806 8.97097 5.27097 7.84516 5.27097C7.09355 5.27097 5.97419 5.85806 5.97419 7.94194C5.97419 10.6032 7.55806 10.5419 7.80323 10.5419C8.87097 10.5419 9.47097 10.071 9.60323 9.12903H11.5581Z" fill="white"/>
</svg>
