<svg width="260" height="47" viewBox="0 0 260 47" fill="none" xmlns="http://www.w3.org/2000/svg">
<path d="M66.9855 25.3124C66.455 23.0912 65.1925 21.2282 63.5259 20.0907C64.5466 10.5252 56.1659 3.91722 56.1659 3.91722H56.57C56.6344 3.91722 56.6989 3.91363 56.7599 3.90734C57.6794 3.80499 58.3964 2.97001 58.3964 1.95816C58.3964 0.94631 57.6794 0.114922 56.7599 0.0098761C56.6989 0.00269348 56.6344 0 56.57 0H52.2956C51.7593 0 51.3242 0.46687 51.3242 1.04148V2.16556H49.4518C49.1088 2.16556 48.8302 2.46454 48.8302 2.83264C48.8302 3.20075 49.1088 3.49973 49.4518 3.49973H51.3585C51.5175 3.8014 51.9492 3.91722 52.2956 3.91722H52.1642C52.611 3.91363 53.0343 7.28497 53.1105 7.77429C53.3807 9.49632 53.4359 11.2677 53.2979 13.0059C53.031 16.3611 51.9618 20.2451 49.0201 21.9842C48.6528 22.2006 48.2629 22.3783 47.8622 22.513C46.0115 23.137 43.9065 22.7267 42.6624 21.0406C40.9096 18.6613 40.8143 15.0799 40.8143 12.1844C40.8143 10.9355 39.8705 9.92099 38.7034 9.92099H35.6638C35.9759 10.4238 36.2545 10.9553 36.4879 11.5075C36.6595 11.9187 36.8067 12.3361 36.923 12.7402C36.9657 12.8883 37.0025 13.0329 37.0393 13.1801L37.0794 13.3444C37.1037 13.453 37.128 13.5581 37.1497 13.6667L37.1832 13.8373C37.2083 13.9756 37.2326 14.1138 37.2535 14.2548L37.2627 14.3203C37.2844 14.4784 37.3028 14.6391 37.3212 14.8007L37.3338 14.9515C37.343 15.0763 37.3522 15.1984 37.3581 15.3196L37.3673 15.4705C37.3731 15.6384 37.3798 15.8062 37.3798 15.9732C37.3798 16.1411 37.3765 16.309 37.3673 16.476L37.3581 16.6278C37.3522 16.749 37.343 16.8711 37.3338 16.9923L37.3212 17.1467C37.3062 17.3074 37.2878 17.469 37.2627 17.6297L37.2535 17.6989C37.2351 17.8335 37.2108 17.9718 37.1865 18.1092C37.1773 18.1657 37.1648 18.2241 37.1531 18.2807C37.1313 18.3857 37.1096 18.4908 37.0853 18.5958L37.0485 18.7601C37.0117 18.9145 36.9715 19.0591 36.9322 19.2036C36.8159 19.6112 36.6687 20.0251 36.4971 20.439C36.1541 21.2605 35.7157 22.0327 35.1945 22.7393L35.1761 22.7662C35.1058 22.8614 35.0322 22.9565 34.9585 23.0517L34.9343 23.0813C34.7134 23.357 34.4867 23.6138 34.2507 23.8571L34.1805 23.9289C34.1068 24.0016 34.0332 24.077 33.9571 24.1498L33.8893 24.2117C33.7513 24.3365 33.6166 24.4613 33.4727 24.5798L33.3748 24.6624C33.307 24.7181 33.2367 24.7737 33.1631 24.8294L33.0409 24.9219C32.9606 24.9838 32.8903 25.0332 32.8234 25.0826C32.7707 25.1185 32.6486 25.2038 32.6486 25.2038C32.544 25.2765 32.4402 25.3457 32.3331 25.4112C32.2712 25.4507 32.2068 25.4902 32.1399 25.5297C32.0755 25.5692 32.0144 25.6051 31.95 25.6384C31.8763 25.6806 31.8061 25.7165 31.7349 25.756C31.668 25.7928 31.6128 25.8224 31.5576 25.8484C31.4446 25.9077 31.3183 25.967 31.1961 26.0226C31.1627 26.0388 31.0489 26.0882 31.0489 26.0882C30.9602 26.1277 30.8715 26.1636 30.7795 26.2031L30.6172 26.2659C30.5184 26.3054 30.4206 26.3378 30.3227 26.3737L30.1938 26.4204C30.0558 26.4662 29.9186 26.5092 29.7772 26.5479L29.6425 26.5847C29.5446 26.6107 29.4375 26.6367 29.3296 26.6637C29.281 26.6735 29.2317 26.6861 29.1798 26.696C29.0602 26.722 28.9313 26.7454 28.8058 26.7687L28.7297 26.7813C28.5824 26.8046 28.4318 26.8244 28.2787 26.8441L28.1499 26.8567C28.0369 26.8702 27.9207 26.8765 27.8044 26.8863L27.6688 26.8935C27.5099 26.8998 27.3534 26.9061 27.197 26.9061H24.8351C24.8133 27.1467 24.7983 27.3864 24.7983 27.6297C24.7983 31.7005 27.8746 35 31.6714 35C35.4672 35 38.5436 31.7005 38.5436 27.6297C38.5436 27.2679 38.5193 26.916 38.4733 26.5676H52.893C52.8469 26.9133 52.8227 27.2679 52.8227 27.6297C52.8227 31.7005 55.899 35 59.6957 35C63.4925 35 66.5688 31.7005 66.5688 27.6297C66.5688 27.021 66.4977 26.4329 66.3697 25.8682C66.6943 26.0253 67.08 25.7165 66.9855 25.3124Z" fill="white"/>
<path d="M27.1911 25.2729C27.3258 25.2729 27.458 25.2702 27.5927 25.263C27.632 25.2603 27.6688 25.2603 27.709 25.2567C27.8102 25.2504 27.9081 25.2432 28.006 25.2334C28.0428 25.2307 28.0796 25.2271 28.1164 25.2235C28.2453 25.2109 28.3741 25.1912 28.503 25.1714C28.5239 25.1678 28.5456 25.1651 28.564 25.1615C28.6711 25.1418 28.7782 25.122 28.8853 25.0987C28.9255 25.0888 28.9681 25.0789 29.0083 25.0726C29.1003 25.0529 29.1924 25.0295 29.281 25.0035C29.3178 24.9936 29.3547 24.9838 29.3915 24.9739C29.5111 24.9416 29.6274 24.9048 29.7437 24.8652C29.7805 24.8527 29.8173 24.8392 29.8508 24.8266C29.9336 24.797 30.019 24.7674 30.1018 24.7342C30.1478 24.718 30.1938 24.6982 30.2398 24.6785C30.3168 24.6489 30.3929 24.6157 30.4699 24.5797C30.5126 24.56 30.5527 24.5438 30.5954 24.5241C30.7 24.4747 30.8037 24.4253 30.9083 24.3723C30.9568 24.3463 31.0062 24.3203 31.0547 24.2942C31.1166 24.261 31.1777 24.2278 31.2354 24.1955C31.2882 24.1658 31.3434 24.1362 31.3952 24.103C31.4505 24.0707 31.5057 24.0339 31.5634 24.0015C31.6529 23.9459 31.7416 23.8866 31.8303 23.8274C31.8797 23.7941 31.9315 23.7582 31.9801 23.725C32.0386 23.6828 32.0972 23.6397 32.1549 23.5975C32.1951 23.5679 32.2319 23.5383 32.2712 23.5086C32.3331 23.4628 32.3909 23.4135 32.4519 23.3668C32.4829 23.3407 32.5105 23.3183 32.5415 23.2914C32.6695 23.1863 32.7925 23.0714 32.9146 22.9601C32.9272 22.9502 32.9364 22.9403 32.9489 22.9268C33.0133 22.864 33.0744 22.8056 33.1388 22.7392C33.1597 22.7194 33.1781 22.6997 33.1966 22.6772C33.4049 22.4636 33.6015 22.24 33.7881 22.0039C33.7914 22.0003 33.7948 21.994 33.7973 21.9904C33.8617 21.9114 33.9228 21.8297 33.9847 21.7471C33.9905 21.7408 33.9964 21.7309 33.9997 21.7237C34.4407 21.1258 34.8121 20.4686 35.1058 19.7656C35.2472 19.4271 35.3727 19.0752 35.4764 18.7178C35.5132 18.5921 35.5442 18.4673 35.5743 18.3425C35.5869 18.2967 35.5961 18.2474 35.6086 18.2016C35.6295 18.1127 35.6479 18.0211 35.6663 17.9322C35.6755 17.8828 35.6847 17.8371 35.694 17.7877C35.7157 17.6692 35.7375 17.5506 35.7525 17.4321C35.7559 17.416 35.7584 17.3962 35.7617 17.3801C35.7801 17.2454 35.7952 17.1071 35.8102 16.9689C35.8136 16.9267 35.8194 16.8836 35.8228 16.8414C35.832 16.739 35.8379 16.634 35.8445 16.5289C35.8471 16.4858 35.8504 16.4436 35.8504 16.4005C35.8563 16.2596 35.8596 16.115 35.8596 15.9705C35.8596 15.8259 35.8563 15.6841 35.8504 15.5395C35.8471 15.4973 35.8471 15.4542 35.8445 15.4111C35.8379 15.3061 35.832 15.2046 35.8228 15.0996C35.8194 15.0565 35.8169 15.0143 35.8102 14.9712C35.7985 14.8329 35.7801 14.6956 35.7617 14.5609C35.7584 14.5438 35.7559 14.5241 35.7525 14.5079C35.7341 14.3894 35.7157 14.2709 35.694 14.1533C35.6847 14.1039 35.6755 14.0581 35.6663 14.0087C35.6479 13.9162 35.6295 13.8274 35.6086 13.7394C35.5961 13.6927 35.5869 13.6433 35.5743 13.5975C35.5442 13.4727 35.5107 13.3443 35.4764 13.2231C35.3727 12.8649 35.2472 12.5129 35.1058 12.1745C34.8121 11.4715 34.4381 10.8142 33.9997 10.2163C33.9939 10.21 33.9872 10.2001 33.9847 10.193C33.9228 10.1113 33.8617 10.0287 33.7973 9.94964C33.7948 9.94695 33.7914 9.93977 33.7881 9.93707C33.7822 9.92989 33.7789 9.9236 33.773 9.92091C33.5889 9.69376 33.399 9.47379 33.1966 9.2664C33.1781 9.24664 33.1572 9.22689 33.1388 9.20444C33.0777 9.1416 33.0133 9.07965 32.9489 9.0168C32.9364 9.00692 32.9272 8.99705 32.9146 8.98358C32.7925 8.87225 32.6695 8.75733 32.5415 8.65228C32.5105 8.62535 32.4829 8.6029 32.4519 8.57686C32.3942 8.52748 32.3331 8.4808 32.2712 8.43501C32.2319 8.40538 32.1951 8.37575 32.1549 8.34612C32.0972 8.30392 32.0386 8.26083 31.9801 8.21863C31.9315 8.18182 31.8797 8.1495 31.8303 8.11628C31.7416 8.05702 31.6529 7.99776 31.5634 7.9421C31.5082 7.90619 31.4538 7.87297 31.3952 7.84065C31.3434 7.80743 31.2907 7.7778 31.2354 7.74817C31.1744 7.71585 31.1166 7.68263 31.0547 7.64941C31.0062 7.62337 30.9568 7.59733 30.9083 7.5713C30.8037 7.51833 30.7025 7.46894 30.5954 7.41956C30.5553 7.39981 30.5126 7.38365 30.4699 7.3639C30.3929 7.33068 30.3168 7.29836 30.2398 7.26514C30.1938 7.24539 30.1478 7.22922 30.1018 7.20947C30.019 7.17625 29.937 7.14662 29.8508 7.117C29.814 7.10443 29.7772 7.09096 29.7437 7.07839C29.6274 7.03889 29.5078 7.00207 29.3915 6.96975C29.3547 6.95988 29.3178 6.95 29.281 6.94012C29.189 6.91678 29.1003 6.89434 29.0083 6.87099C28.9681 6.86112 28.9255 6.85124 28.8853 6.84495C28.7782 6.82161 28.6745 6.80186 28.564 6.78211C28.5423 6.77852 28.5214 6.77582 28.503 6.77223C28.3741 6.75248 28.2486 6.73632 28.1164 6.72016C28.0796 6.71657 28.0428 6.71297 28.006 6.71028C27.9081 6.7004 27.8069 6.69322 27.709 6.68694C27.6688 6.68335 27.632 6.68065 27.5927 6.68065C27.4605 6.67347 27.3258 6.67078 27.1911 6.67078H2.16608L3.74149 8.87225C5.23658 10.9552 7.54991 12.178 10.0013 12.178H26.1771C26.3452 12.178 26.5075 12.2696 26.5937 12.4241C26.5971 12.4276 26.5971 12.4312 26.5996 12.4339C26.7962 12.7823 26.5511 13.2267 26.1712 13.2267H9.10357L10.6756 15.421C12.1707 17.5049 14.4841 18.7268 16.9354 18.7268H28.7355C29.1154 18.7268 29.3572 19.1712 29.1647 19.5196C29.1614 19.5223 29.1614 19.5259 29.158 19.5295C29.0727 19.6839 28.9104 19.7755 28.7414 19.7755H16.0377L17.6098 21.9707C18.8079 23.6397 20.533 24.7575 22.4322 25.1355C22.9041 25.2271 23.3852 25.28 23.8729 25.28H27.1911V25.2729Z" fill="white"/>
<path d="M3.7934 22.1287C3.7934 22.6836 4.21339 23.1307 4.72793 23.1307H13.7487C14.2666 23.1307 14.6832 22.6809 14.6832 22.1287C14.6832 21.5766 14.2632 21.1259 13.7487 21.1259H4.72793C4.21339 21.1232 3.7934 21.573 3.7934 22.1287Z" fill="white"/>
<path d="M6.10335 18.3758C6.10335 17.8201 5.68419 17.3738 5.16882 17.3738H0.934537C0.419998 17.3702 0 17.8201 0 18.3758C0 18.9307 0.419998 19.3778 0.934537 19.3778H5.16631C5.6867 19.3778 6.10335 18.928 6.10335 18.3758Z" fill="white"/>
<path d="M18.3268 24.9542C18.2164 24.9048 18.0934 24.8752 17.9679 24.8752H9.23831C8.72042 24.8752 8.30377 25.3259 8.30377 25.878C8.30377 26.4329 8.72377 26.88 9.23831 26.88H17.9654C18.4833 26.88 18.8999 26.4302 18.8999 25.878C18.8999 25.6051 18.7987 25.3618 18.6364 25.1813C18.5502 25.0861 18.4431 25.0071 18.3268 24.9542Z" fill="white"/>
<path d="M3.96821 24.8788H3.05208C2.53419 24.8788 2.11754 25.3295 2.11754 25.8808C2.11754 26.4365 2.5367 26.8837 3.05208 26.8837H3.96821C4.48609 26.8837 4.90274 26.433 4.90274 25.8808C4.90274 25.3259 4.48609 24.8788 3.96821 24.8788Z" fill="white"/>
<path d="M92.3358 24.065C92.3358 25.645 92.0608 27.105 91.5108 28.445C90.9708 29.775 90.2058 30.93 89.2158 31.91C88.2258 32.88 87.0308 33.64 85.6308 34.19C84.2408 34.73 82.6958 35 80.9958 35H72.5058V13.145H80.9958C82.6958 13.145 84.2408 13.42 85.6308 13.97C87.0308 14.52 88.2258 15.28 89.2158 16.25C90.2058 17.22 90.9708 18.375 91.5108 19.715C92.0608 21.045 92.3358 22.495 92.3358 24.065ZM87.1458 24.065C87.1458 22.985 87.0058 22.01 86.7258 21.14C86.4458 20.27 86.0408 19.535 85.5108 18.935C84.9908 18.325 84.3508 17.86 83.5908 17.54C82.8308 17.21 81.9658 17.045 80.9958 17.045H77.6058V31.1H80.9958C81.9658 31.1 82.8308 30.94 83.5908 30.62C84.3508 30.29 84.9908 29.825 85.5108 29.225C86.0408 28.615 86.4458 27.875 86.7258 27.005C87.0058 26.135 87.1458 25.155 87.1458 24.065ZM100.428 17.045V22.145H107.298V25.895H100.428V31.1H109.398V35H95.3281V13.145H109.398V17.045H100.428ZM125.695 30.95V35H112.525V13.145H117.595V30.95H125.695ZM125.916 24.005H134.016V27.755H125.916V24.005ZM145.401 23.87C146.721 23.87 147.671 23.555 148.251 22.925C148.831 22.295 149.121 21.415 149.121 20.285C149.121 19.785 149.046 19.33 148.896 18.92C148.746 18.51 148.516 18.16 148.206 17.87C147.906 17.57 147.521 17.34 147.051 17.18C146.591 17.02 146.041 16.94 145.401 16.94H142.761V23.87H145.401ZM145.401 13.145C146.941 13.145 148.261 13.33 149.361 13.7C150.471 14.06 151.381 14.56 152.091 15.2C152.811 15.84 153.341 16.595 153.681 17.465C154.021 18.335 154.191 19.275 154.191 20.285C154.191 21.375 154.016 22.375 153.666 23.285C153.316 24.195 152.781 24.975 152.061 25.625C151.341 26.275 150.426 26.785 149.316 27.155C148.216 27.515 146.911 27.695 145.401 27.695H142.761V35H137.691V13.145H145.401ZM161.864 35H156.764V13.145H161.864V35ZM181.575 14.975C181.575 15.235 181.53 15.49 181.44 15.74C181.36 15.99 181.245 16.225 181.095 16.445L170.835 31.1H181.245V35H164.385V33.05C164.385 32.82 164.425 32.595 164.505 32.375C164.585 32.145 164.695 31.935 164.835 31.745L175.125 17.045H165.225V13.145H181.575V14.975ZM199.856 14.975C199.856 15.235 199.811 15.49 199.721 15.74C199.641 15.99 199.526 16.225 199.376 16.445L189.116 31.1H199.526V35H182.666V33.05C182.666 32.82 182.706 32.595 182.786 32.375C182.866 32.145 182.976 31.935 183.116 31.745L193.406 17.045H183.506V13.145H199.856V14.975ZM214.193 26.645L212.168 20.66C212.018 20.28 211.858 19.835 211.688 19.325C211.518 18.805 211.348 18.245 211.178 17.645C211.028 18.255 210.868 18.82 210.698 19.34C210.528 19.86 210.368 20.31 210.218 20.69L208.208 26.645H214.193ZM222.248 35H218.318C217.878 35 217.523 34.9 217.253 34.7C216.983 34.49 216.778 34.225 216.638 33.905L215.348 30.095H207.038L205.748 33.905C205.638 34.185 205.438 34.44 205.148 34.67C204.868 34.89 204.518 35 204.098 35H200.138L208.598 13.145H213.788L222.248 35Z" fill="white"/>
</svg>
