<svg width="88" height="76" viewBox="0 0 88 76" fill="none" xmlns="http://www.w3.org/2000/svg">
<path d="M80.6593 44.87C80.0781 42.9114 78.6949 41.2687 76.8689 40.2657C77.9872 31.8312 68.805 26.0046 68.805 26.0046H69.2477C69.3183 26.0046 69.3889 26.0014 69.4558 25.9959C70.4632 25.9056 71.2488 25.1694 71.2488 24.2772C71.2488 23.385 70.4632 22.6519 69.4558 22.5592C69.3889 22.5529 69.3183 22.5505 69.2477 22.5505H64.5645C63.9769 22.5505 63.5002 22.9622 63.5002 23.4689V24.46H61.4487C61.0729 24.46 60.7676 24.7237 60.7676 25.0482C60.7676 25.3728 61.0729 25.6365 61.4487 25.6365H63.5378C63.712 25.9025 64.185 26.0046 64.5645 26.0046H64.4206C64.9101 26.0014 65.3739 28.9741 65.4573 29.4056C65.7534 30.924 65.8139 32.486 65.6626 34.0186C65.3702 36.9771 64.1987 40.4018 60.9757 41.9353C60.5733 42.1261 60.1461 42.2828 59.7071 42.4016C57.6794 42.9518 55.3731 42.59 54.01 41.1032C52.0896 39.0053 51.9851 35.8474 51.9851 33.2942C51.9851 32.193 50.9511 31.2985 49.6723 31.2985H46.3421C46.684 31.7418 46.9892 32.2105 47.245 32.6973C47.4329 33.0599 47.5942 33.428 47.7217 33.7843C47.7684 33.9149 47.8087 34.0424 47.8491 34.1722L47.8931 34.3171C47.9197 34.4129 47.9462 34.5055 47.9701 34.6013L48.0067 34.7517C48.0342 34.8736 48.0608 34.9955 48.0837 35.1198L48.0938 35.1776C48.1177 35.317 48.1378 35.4587 48.158 35.6012L48.1717 35.7342C48.1818 35.8442 48.1919 35.9519 48.1983 36.0587L48.2084 36.1917C48.2148 36.3398 48.2221 36.4878 48.2221 36.6351C48.2221 36.7831 48.2185 36.9312 48.2084 37.0784L48.1983 37.2122C48.1919 37.3191 48.1818 37.4267 48.1717 37.5336L48.158 37.6698C48.1415 37.8115 48.1213 37.954 48.0938 38.0957L48.0837 38.1567C48.0636 38.2754 48.037 38.3973 48.0104 38.5185C48.0003 38.5683 47.9866 38.6198 47.9737 38.6697C47.9499 38.7623 47.9261 38.8549 47.8995 38.9475L47.8591 39.0924C47.8188 39.2286 47.7748 39.356 47.7317 39.4835C47.6043 39.8429 47.443 40.2079 47.2551 40.5728C46.8792 41.2972 46.3989 41.978 45.8278 42.6011L45.8076 42.6248C45.7306 42.7087 45.65 42.7927 45.5693 42.8766L45.5427 42.9027C45.3007 43.1457 45.0523 43.3722 44.7938 43.5867L44.7168 43.65C44.6362 43.7142 44.5555 43.7807 44.4721 43.8448L44.3978 43.8994C44.2466 44.0095 44.099 44.1195 43.9413 44.224L43.8341 44.2968C43.7598 44.3459 43.6828 44.395 43.6021 44.4441L43.4683 44.5256C43.3803 44.5802 43.3033 44.6238 43.23 44.6673C43.1722 44.699 43.0384 44.7742 43.0384 44.7742C42.9238 44.8383 42.8102 44.8993 42.6928 44.9571C42.625 44.9919 42.5544 45.0267 42.4811 45.0616C42.4105 45.0964 42.3436 45.1281 42.273 45.1574C42.1923 45.1946 42.1153 45.2262 42.0374 45.2611C41.9641 45.2935 41.9036 45.3197 41.8431 45.3426C41.7193 45.3949 41.5809 45.4471 41.4471 45.4962C41.4104 45.5105 41.2857 45.554 41.2857 45.554C41.1886 45.5888 41.0914 45.6205 40.9906 45.6553L40.8127 45.7107C40.7046 45.7456 40.5973 45.7741 40.4901 45.8057L40.3489 45.8469C40.1976 45.8873 40.0473 45.9253 39.8924 45.9593L39.7448 45.9918C39.6376 46.0147 39.5202 46.0377 39.402 46.0615C39.3488 46.0702 39.2947 46.0812 39.2379 46.09C39.1068 46.1129 38.9657 46.1335 38.8282 46.1541L38.7447 46.1652C38.5834 46.1857 38.4184 46.2032 38.2507 46.2206L38.1095 46.2317C37.9857 46.2435 37.8583 46.2491 37.7309 46.2578L37.5824 46.2641C37.4082 46.2697 37.2368 46.2752 37.0654 46.2752H34.4777C34.4538 46.4874 34.4373 46.6987 34.4373 46.9133C34.4373 50.5027 37.8079 53.4121 41.9677 53.4121C46.1266 53.4121 49.4972 50.5027 49.4972 46.9133C49.4972 46.5942 49.4706 46.2839 49.4202 45.9767H65.219C65.1686 46.2815 65.142 46.5942 65.142 46.9133C65.142 50.5027 68.5126 53.4121 72.6724 53.4121C76.8322 53.4121 80.2028 50.5027 80.2028 46.9133C80.2028 46.3765 80.1249 45.858 79.9846 45.36C80.3403 45.4986 80.7629 45.2262 80.6593 44.87Z" fill="white"/>
<path d="M37.059 44.8352C37.2066 44.8352 37.3514 44.8328 37.499 44.8265C37.5421 44.8241 37.5824 44.8241 37.6264 44.8209C37.7373 44.8154 37.8446 44.809 37.9518 44.8003C37.9922 44.7979 38.0325 44.7948 38.0728 44.7916C38.214 44.7805 38.3552 44.7631 38.4963 44.7457C38.5192 44.7425 38.5431 44.7402 38.5632 44.737C38.6806 44.7196 38.7979 44.7022 38.9152 44.6816C38.9592 44.6729 39.006 44.6642 39.05 44.6586C39.1508 44.6412 39.2516 44.6206 39.3488 44.5977C39.3892 44.5889 39.4295 44.5802 39.4698 44.5715C39.6009 44.543 39.7283 44.5106 39.8557 44.4757C39.8961 44.4647 39.9364 44.4528 39.9731 44.4417C40.0638 44.4156 40.1573 44.3895 40.2481 44.3602C40.2985 44.3459 40.3489 44.3285 40.3993 44.3111C40.4837 44.2849 40.5671 44.2557 40.6514 44.224C40.6982 44.2066 40.7422 44.1923 40.7889 44.1749C40.9035 44.1314 41.0172 44.0878 41.1317 44.0411C41.1849 44.0182 41.239 43.9952 41.2922 43.9722C41.36 43.9429 41.4269 43.9137 41.4902 43.8852C41.5479 43.859 41.6084 43.8329 41.6652 43.8036C41.7257 43.7751 41.7862 43.7427 41.8495 43.7142C41.9476 43.6651 42.0447 43.6128 42.1419 43.5606C42.196 43.5313 42.2528 43.4996 42.306 43.4703C42.3702 43.4331 42.4343 43.3951 42.4976 43.3579C42.5416 43.3318 42.5819 43.3057 42.625 43.2795C42.6928 43.2392 42.7561 43.1956 42.823 43.1544C42.8569 43.1315 42.8871 43.1117 42.9211 43.0879C43.0613 42.9953 43.1961 42.894 43.3299 42.7958C43.3437 42.7871 43.3537 42.7784 43.3675 42.7665C43.4381 42.7111 43.505 42.6597 43.5756 42.6011C43.5985 42.5837 43.6187 42.5662 43.6388 42.5464C43.8671 42.358 44.0825 42.1609 44.2869 41.9527C44.2906 41.9495 44.2942 41.944 44.297 41.9408C44.3676 41.8712 44.4345 41.7991 44.5023 41.7263C44.5087 41.7207 44.5152 41.712 44.5188 41.7057C45.0019 41.1784 45.4089 40.5989 45.7307 39.9791C45.8856 39.6806 46.0231 39.3703 46.1367 39.0552C46.1771 38.9444 46.211 38.8343 46.244 38.7243C46.2577 38.6839 46.2678 38.6404 46.2816 38.6C46.3045 38.5216 46.3246 38.4409 46.3448 38.3625C46.3549 38.3189 46.365 38.2786 46.3751 38.235C46.3989 38.1305 46.4227 38.026 46.4392 37.9215C46.4429 37.9073 46.4457 37.8899 46.4493 37.8756C46.4695 37.7569 46.486 37.6349 46.5025 37.513C46.5062 37.4758 46.5126 37.4378 46.5162 37.4006C46.5263 37.3104 46.5327 37.2177 46.5401 37.1251C46.5428 37.0871 46.5465 37.0499 46.5465 37.0119C46.5529 36.8876 46.5566 36.7602 46.5566 36.6327C46.5566 36.5052 46.5529 36.3802 46.5465 36.2527C46.5428 36.2155 46.5428 36.1775 46.5401 36.1395C46.5327 36.0469 46.5263 35.9574 46.5162 35.8648C46.5126 35.8268 46.5098 35.7896 46.5025 35.7516C46.4897 35.6297 46.4695 35.5085 46.4493 35.3898C46.4457 35.3747 46.4429 35.3573 46.4392 35.3431C46.4191 35.2386 46.3989 35.1341 46.3751 35.0304C46.365 34.9868 46.3549 34.9465 46.3448 34.9029C46.3246 34.8214 46.3045 34.743 46.2816 34.6654C46.2678 34.6242 46.2577 34.5807 46.244 34.5403C46.211 34.4303 46.1743 34.3171 46.1367 34.2102C46.0231 33.8943 45.8856 33.584 45.7307 33.2855C45.4089 32.6657 44.9991 32.0862 44.5188 31.5589C44.5124 31.5534 44.5051 31.5447 44.5023 31.5383C44.4345 31.4663 44.3676 31.3935 44.297 31.3238C44.2942 31.3214 44.2906 31.3151 44.2869 31.3127C44.2805 31.3064 44.2768 31.3008 44.2704 31.2985C44.0687 31.0982 43.8606 30.9042 43.6388 30.7213C43.6187 30.7039 43.5957 30.6865 43.5756 30.6667C43.5087 30.6113 43.4381 30.5567 43.3675 30.5012C43.3537 30.4925 43.3437 30.4838 43.3299 30.472C43.1961 30.3738 43.0613 30.2725 42.9211 30.1798C42.8871 30.1561 42.8569 30.1363 42.823 30.1133C42.7597 30.0698 42.6928 30.0286 42.625 29.9882C42.5819 29.9621 42.5416 29.936 42.4976 29.9099C42.4343 29.8727 42.3702 29.8347 42.306 29.7975C42.2528 29.765 42.196 29.7365 42.1419 29.7072C42.0447 29.655 41.9476 29.6027 41.8495 29.5536C41.789 29.522 41.7294 29.4927 41.6652 29.4642C41.6084 29.4349 41.5506 29.4087 41.4902 29.3826C41.4232 29.3541 41.36 29.3248 41.2922 29.2955C41.239 29.2726 41.1849 29.2496 41.1317 29.2267C41.0172 29.18 40.9062 29.1364 40.7889 29.0929C40.7449 29.0755 40.6982 29.0612 40.6514 29.0438C40.5671 29.0145 40.4837 28.986 40.3993 28.9567C40.3489 28.9393 40.2985 28.925 40.2481 28.9076C40.1573 28.8783 40.0675 28.8522 39.9731 28.8261C39.9327 28.815 39.8924 28.8031 39.8557 28.792C39.7283 28.7572 39.5972 28.7247 39.4698 28.6962C39.4295 28.6875 39.3892 28.6788 39.3488 28.6701C39.248 28.6495 39.1508 28.6297 39.05 28.6092C39.006 28.6005 38.9592 28.5917 38.9152 28.5862C38.7979 28.5656 38.6842 28.5482 38.5632 28.5308C38.5394 28.5276 38.5165 28.5252 38.4963 28.5221C38.3552 28.5047 38.2176 28.4904 38.0728 28.4762C38.0325 28.473 37.9922 28.4698 37.9518 28.4675C37.8446 28.4587 37.7337 28.4524 37.6264 28.4469C37.5824 28.4437 37.5421 28.4413 37.499 28.4413C37.3542 28.435 37.2066 28.4326 37.059 28.4326H9.64056L11.3666 30.3738C13.0047 32.2105 15.5393 33.2887 18.2251 33.2887H35.948C36.1322 33.2887 36.3101 33.3695 36.4045 33.5056C36.4081 33.5088 36.4081 33.512 36.4109 33.5143C36.6263 33.8215 36.3577 34.2134 35.9416 34.2134H17.2416L18.964 36.1482C20.6021 37.9857 23.1366 39.0631 25.8225 39.0631H38.7512C39.1673 39.0631 39.4322 39.455 39.2214 39.7622C39.2177 39.7645 39.2177 39.7677 39.2141 39.7709C39.1206 39.907 38.9427 39.9878 38.7576 39.9878H24.8389L26.5613 41.9234C27.874 43.3951 29.7641 44.3807 31.845 44.714C32.362 44.7948 32.8891 44.8415 33.4235 44.8415H37.059V44.8352Z" fill="white"/>
<path d="M11.4235 42.0628C11.4235 42.552 11.8837 42.9463 12.4474 42.9463H22.3309C22.8984 42.9463 23.3549 42.5496 23.3549 42.0628C23.3549 41.5759 22.8947 41.1785 22.3309 41.1785H12.4474C11.8837 41.1761 11.4235 41.5727 11.4235 42.0628Z" fill="white"/>
<path d="M13.9544 38.7536C13.9544 38.2636 13.4952 37.8701 12.9305 37.8701H8.29125C7.7275 37.867 7.26733 38.2636 7.26733 38.7536C7.26733 39.2429 7.7275 39.6371 8.29125 39.6371H12.9278C13.4979 39.6371 13.9544 39.2405 13.9544 38.7536Z" fill="white"/>
<path d="M27.3469 44.5543C27.2259 44.5107 27.0912 44.4846 26.9537 44.4846H17.3892C16.8217 44.4846 16.3652 44.882 16.3652 45.3689C16.3652 45.8582 16.8254 46.2524 17.3892 46.2524H26.9509C27.5183 46.2524 27.9748 45.8558 27.9748 45.3689C27.9748 45.1282 27.8639 44.9137 27.6861 44.7546C27.5917 44.6707 27.4743 44.601 27.3469 44.5543Z" fill="white"/>
<path d="M11.6151 44.4878H10.6113C10.0439 44.4878 9.5874 44.8852 9.5874 45.3713C9.5874 45.8613 10.0467 46.2556 10.6113 46.2556H11.6151C12.1825 46.2556 12.639 45.8582 12.639 45.3713C12.639 44.882 12.1825 44.4878 11.6151 44.4878Z" fill="white"/>
</svg>
