<svg width="254" height="47" viewBox="0 0 254 47" fill="none" xmlns="http://www.w3.org/2000/svg">
<path d="M72.9841 31.0357C72.4062 28.751 71.0306 26.8347 69.2148 25.6647C70.3269 15.8259 61.1957 9.02914 61.1957 9.02914H61.636C61.7062 9.02914 61.7764 9.02545 61.8429 9.01898C62.8447 8.91371 63.6259 8.05487 63.6259 7.01411C63.6259 5.97335 62.8447 5.11821 61.8429 5.01016C61.7764 5.00277 61.7062 5 61.636 5H56.9788C56.3944 5 55.9204 5.48021 55.9204 6.07124V7.22743H53.8803C53.5066 7.22743 53.203 7.53495 53.203 7.91358C53.203 8.2922 53.5066 8.59972 53.8803 8.59972H55.9578C56.131 8.91001 56.6014 9.02914 56.9788 9.02914H56.8356C57.3224 9.02545 57.7837 12.4931 57.8666 12.9964C58.1611 14.7676 58.2212 16.5897 58.0708 18.3775C57.78 21.8286 56.615 25.8235 53.41 27.6123C53.0098 27.8349 52.585 28.0177 52.1483 28.1562C50.1319 28.7981 47.8384 28.376 46.4829 26.6417C44.5732 24.1945 44.4693 20.5108 44.4693 17.5325C44.4693 16.248 43.441 15.2044 42.1694 15.2044H38.8576C39.1976 15.7216 39.5012 16.2683 39.7555 16.8362C39.9424 17.2592 40.1028 17.6886 40.2295 18.1042C40.276 18.2565 40.3161 18.4052 40.3562 18.5567L40.4 18.7257C40.4264 18.8374 40.4529 18.9455 40.4766 19.0572L40.513 19.2327C40.5404 19.3749 40.5668 19.5171 40.5896 19.6621L40.5996 19.7295C40.6233 19.892 40.6434 20.0573 40.6634 20.2236L40.6771 20.3787C40.6871 20.5071 40.6972 20.6327 40.7036 20.7573L40.7136 20.9125C40.72 21.0852 40.7273 21.2579 40.7273 21.4296C40.7273 21.6023 40.7236 21.775 40.7136 21.9468L40.7036 22.1028C40.6972 22.2275 40.6871 22.3531 40.6771 22.4778L40.6634 22.6366C40.647 22.8019 40.627 22.9681 40.5996 23.1334L40.5896 23.2045C40.5696 23.3431 40.5431 23.4853 40.5167 23.6266C40.5067 23.6848 40.493 23.7448 40.4802 23.803C40.4565 23.911 40.4328 24.0191 40.4064 24.1271L40.3663 24.2961C40.3262 24.4549 40.2824 24.6036 40.2396 24.7523C40.1129 25.1716 39.9524 25.5973 39.7655 26.023C39.3918 26.868 38.9141 27.6622 38.3462 28.389L38.3262 28.4167C38.2496 28.5146 38.1694 28.6124 38.0892 28.7103L38.0627 28.7408C37.8221 29.0243 37.575 29.2884 37.318 29.5387L37.2414 29.6126C37.1612 29.6874 37.081 29.7649 36.998 29.8398L36.9242 29.9035C36.7738 30.0318 36.627 30.1602 36.4702 30.2821L36.3636 30.3671C36.2897 30.4243 36.2132 30.4816 36.1329 30.5388L35.9998 30.6339C35.9123 30.6977 35.8358 30.7485 35.7628 30.7992C35.7054 30.8362 35.5723 30.9239 35.5723 30.9239C35.4584 30.9987 35.3453 31.0698 35.2287 31.1372C35.1612 31.1779 35.091 31.2185 35.0181 31.2591C34.9479 31.2998 34.8813 31.3367 34.8112 31.3709C34.7309 31.4143 34.6544 31.4512 34.5769 31.4919C34.504 31.5297 34.4438 31.5602 34.3836 31.587C34.2606 31.6479 34.1229 31.7089 33.9898 31.7661C33.9534 31.7828 33.8294 31.8335 33.8294 31.8335C33.7328 31.8742 33.6361 31.9111 33.5359 31.9517L33.359 32.0164C33.2515 32.057 33.1448 32.0903 33.0381 32.1272L32.8978 32.1752C32.7474 32.2223 32.5979 32.2667 32.4438 32.3064L32.297 32.3442C32.1904 32.371 32.0737 32.3978 31.9561 32.4255C31.9032 32.4356 31.8495 32.4486 31.7929 32.4587C31.6626 32.4855 31.5222 32.5095 31.3855 32.5335L31.3025 32.5465C31.1421 32.5705 30.978 32.5908 30.8112 32.6111L30.6708 32.624C30.5477 32.6379 30.421 32.6444 30.2943 32.6545L30.1466 32.6619C29.9734 32.6684 29.803 32.6748 29.6325 32.6748H27.0592C27.0355 32.9223 27.019 33.1689 27.019 33.4192C27.019 37.6062 30.3709 41 34.5076 41C38.6434 41 41.9953 37.6062 41.9953 33.4192C41.9953 33.047 41.9688 32.685 41.9187 32.3267H57.6296C57.5795 32.6822 57.553 33.047 57.553 33.4192C57.553 37.6062 60.9049 41 65.0416 41C69.1783 41 72.5302 37.6062 72.5302 33.4192C72.5302 32.793 72.4527 32.1882 72.3132 31.6073C72.6669 31.7689 73.0871 31.4512 72.9841 31.0357Z" fill="#EB1700"/>
<path d="M29.6259 30.9951C29.7726 30.9951 29.9167 30.9923 30.0634 30.9849C30.1063 30.9821 30.1464 30.9821 30.1901 30.9784C30.3004 30.972 30.4071 30.9646 30.5138 30.9544C30.5539 30.9516 30.594 30.948 30.6341 30.9443C30.7745 30.9313 30.9148 30.911 31.0552 30.8907C31.078 30.887 31.1017 30.8842 31.1218 30.8805C31.2385 30.8602 31.3551 30.8399 31.4718 30.8159C31.5156 30.8057 31.5621 30.7956 31.6058 30.7891C31.7061 30.7688 31.8064 30.7448 31.903 30.718C31.9431 30.7078 31.9832 30.6977 32.0233 30.6875C32.1537 30.6543 32.2804 30.6164 32.4071 30.5758C32.4472 30.5629 32.4873 30.549 32.5238 30.5361C32.614 30.5056 32.707 30.4751 32.7972 30.441C32.8474 30.4243 32.8975 30.404 32.9476 30.3837C33.0315 30.3532 33.1145 30.3191 33.1983 30.2821C33.2448 30.2618 33.2886 30.2452 33.3351 30.2249C33.449 30.1741 33.562 30.1233 33.676 30.0688C33.7289 30.042 33.7826 30.0152 33.8355 29.9885C33.903 29.9543 33.9695 29.9201 34.0324 29.8869C34.0898 29.8564 34.15 29.8259 34.2065 29.7918C34.2667 29.7585 34.3269 29.7206 34.3898 29.6874C34.4873 29.6301 34.5839 29.5692 34.6805 29.5082C34.7343 29.4741 34.7908 29.4371 34.8437 29.403C34.9075 29.3596 34.9713 29.3152 35.0342 29.2718C35.078 29.2414 35.1181 29.2109 35.1609 29.1804C35.2284 29.1333 35.2913 29.0825 35.3578 29.0345C35.3916 29.0077 35.4217 28.9846 35.4554 28.9569C35.5949 28.8489 35.7289 28.7307 35.8619 28.6162C35.8756 28.606 35.8856 28.5959 35.8993 28.582C35.9695 28.5174 36.0361 28.4573 36.1062 28.389C36.129 28.3687 36.1491 28.3484 36.1691 28.3253C36.3961 28.1055 36.6103 27.8755 36.8136 27.6327C36.8173 27.629 36.8209 27.6225 36.8237 27.6188C36.8938 27.5375 36.9604 27.4535 37.0278 27.3685C37.0342 27.3621 37.0406 27.3519 37.0443 27.3445C37.5247 26.7295 37.9294 26.0535 38.2493 25.3304C38.4034 24.9823 38.5401 24.6203 38.6532 24.2527C38.6933 24.1234 38.727 23.9951 38.7598 23.8667C38.7735 23.8196 38.7835 23.7688 38.7972 23.7217C38.82 23.6303 38.84 23.5361 38.8601 23.4447C38.8701 23.3939 38.8802 23.3468 38.8902 23.296C38.9139 23.1741 38.9376 23.0522 38.954 22.9303C38.9576 22.9137 38.9604 22.8934 38.964 22.8767C38.9841 22.7382 39.0005 22.596 39.0169 22.4538C39.0205 22.4104 39.0269 22.3661 39.0306 22.3227C39.0406 22.2174 39.047 22.1093 39.0543 22.0013C39.057 21.957 39.0606 21.9136 39.0606 21.8692C39.067 21.7242 39.0707 21.5756 39.0707 21.4269C39.0707 21.2782 39.067 21.1323 39.0606 20.9836C39.057 20.9402 39.057 20.8959 39.0543 20.8516C39.047 20.7435 39.0406 20.6392 39.0306 20.5311C39.0269 20.4868 39.0242 20.4434 39.0169 20.399C39.0041 20.2568 38.9841 20.1155 38.964 19.977C38.9604 19.9595 38.9576 19.9392 38.954 19.9225C38.9339 19.8006 38.9139 19.6787 38.8902 19.5578C38.8802 19.507 38.8701 19.4599 38.8601 19.4091C38.84 19.314 38.82 19.2225 38.7972 19.132C38.7835 19.084 38.7735 19.0332 38.7598 18.9861C38.727 18.8578 38.6905 18.7257 38.6532 18.601C38.5401 18.2326 38.4034 17.8706 38.2493 17.5224C37.9294 16.7993 37.5219 16.1233 37.0443 15.5083C37.0379 15.5018 37.0306 15.4917 37.0278 15.4843C36.9604 15.4003 36.8938 15.3153 36.8237 15.234C36.8209 15.2313 36.8173 15.2239 36.8136 15.2211C36.8072 15.2137 36.8036 15.2072 36.7972 15.2045C36.5967 14.9708 36.3897 14.7446 36.1691 14.5313C36.1491 14.5109 36.1263 14.4906 36.1062 14.4675C36.0397 14.4029 35.9695 14.3392 35.8993 14.2745C35.8856 14.2644 35.8756 14.2542 35.8619 14.2404C35.7289 14.1259 35.5949 14.0076 35.4554 13.8996C35.4217 13.8719 35.3916 13.8488 35.3578 13.822C35.2949 13.7712 35.2284 13.7232 35.1609 13.6761C35.1181 13.6456 35.078 13.6152 35.0342 13.5847C34.9713 13.5413 34.9075 13.497 34.8437 13.4536C34.7908 13.4157 34.7343 13.3825 34.6805 13.3483C34.5839 13.2873 34.4873 13.2264 34.3898 13.1691C34.3296 13.1322 34.2703 13.098 34.2065 13.0648C34.15 13.0306 34.0926 13.0001 34.0324 12.9697C33.9659 12.9364 33.903 12.9022 33.8355 12.8681C33.7826 12.8413 33.7289 12.8145 33.676 12.7877C33.562 12.7332 33.4517 12.6825 33.3351 12.6317C33.2913 12.6113 33.2448 12.5947 33.1983 12.5744C33.1145 12.5402 33.0315 12.507 32.9476 12.4728C32.8975 12.4525 32.8474 12.4359 32.7972 12.4156C32.707 12.3814 32.6177 12.3509 32.5238 12.3205C32.4837 12.3075 32.4436 12.2937 32.4071 12.2807C32.2804 12.2401 32.15 12.2022 32.0233 12.169C31.9832 12.1588 31.9431 12.1487 31.903 12.1385C31.8027 12.1145 31.7061 12.0914 31.6058 12.0674C31.5621 12.0573 31.5156 12.0471 31.4718 12.0406C31.3551 12.0166 31.2421 11.9963 31.1218 11.976C31.0981 11.9723 31.0753 11.9695 31.0552 11.9658C30.9148 11.9455 30.7781 11.9289 30.6341 11.9123C30.594 11.9086 30.5539 11.9049 30.5138 11.9021C30.4071 11.892 30.2968 11.8846 30.1901 11.8781C30.1464 11.8744 30.1063 11.8716 30.0634 11.8716C29.9194 11.8643 29.7726 11.8615 29.6259 11.8615H2.35986L4.07635 14.1259C5.70533 16.2683 8.22583 17.5261 10.8967 17.5261H28.5211C28.7043 17.5261 28.8811 17.6203 28.975 17.7791C28.9787 17.7828 28.9787 17.7865 28.9814 17.7893C29.1956 18.1476 28.9285 18.6047 28.5147 18.6047H9.91861L11.6315 20.8617C13.2604 23.0051 15.7809 24.262 18.4518 24.262H31.3086C31.7225 24.262 31.9859 24.7191 31.7763 25.0774C31.7726 25.0802 31.7726 25.0839 31.769 25.0876C31.676 25.2464 31.4992 25.3406 31.315 25.3406H17.4737L19.1866 27.5985C20.4919 29.3152 22.3716 30.465 24.4409 30.8538C24.955 30.948 25.4791 31.0024 26.0106 31.0024H29.6259V30.9951Z" fill="#EB1700"/>
<path d="M4.1333 27.761C4.1333 28.3317 4.59091 28.7916 5.15153 28.7916H14.9801C15.5444 28.7916 15.9983 28.329 15.9983 27.761C15.9983 27.1931 15.5407 26.7295 14.9801 26.7295H5.15153C4.59091 26.7267 4.1333 27.1894 4.1333 27.761Z" fill="#EB1700"/>
<path d="M6.64991 23.9009C6.64991 23.3293 6.19322 22.8703 5.63169 22.8703H1.01823C0.457609 22.8666 0 23.3293 0 23.9009C0 24.4716 0.457609 24.9315 1.01823 24.9315H5.62895C6.19595 24.9315 6.64991 24.4688 6.64991 23.9009Z" fill="#EB1700"/>
<path d="M19.968 30.6671C19.8477 30.6164 19.7137 30.5859 19.5769 30.5859H10.0656C9.50133 30.5859 9.04736 31.0495 9.04736 31.6174C9.04736 32.1881 9.50497 32.648 10.0656 32.648H19.5742C20.1385 32.648 20.5924 32.1853 20.5924 31.6174C20.5924 31.3367 20.4821 31.0864 20.3053 30.9008C20.2114 30.8029 20.0947 30.7216 19.968 30.6671Z" fill="#EB1700"/>
<path d="M4.32353 30.5896H3.32535C2.76109 30.5896 2.30713 31.0532 2.30713 31.6202C2.30713 32.1918 2.76383 32.6517 3.32535 32.6517H4.32353C4.88779 32.6517 5.34175 32.1881 5.34175 31.6202C5.34175 31.0495 4.88779 30.5896 4.32353 30.5896Z" fill="#EB1700"/>
<path d="M86.6568 33H79.6674V14.0909H86.6475C88.5742 14.0909 90.233 14.4695 91.6241 15.2266C93.0214 15.9775 94.0985 17.0608 94.8556 18.4766C95.6127 19.8861 95.9913 21.5727 95.9913 23.5362C95.9913 25.5059 95.6127 27.1986 94.8556 28.6143C94.1047 30.0301 93.0306 31.1165 91.6333 31.8736C90.2361 32.6245 88.5772 33 86.6568 33ZM84.2377 29.1037H86.4814C87.5401 29.1037 88.4357 28.9252 89.1681 28.5682C89.9068 28.205 90.4638 27.6172 90.8393 26.8047C91.2209 25.986 91.4118 24.8965 91.4118 23.5362C91.4118 22.1759 91.2209 21.0926 90.8393 20.2862C90.4577 19.4737 89.8945 18.889 89.1497 18.532C88.411 18.1688 87.5001 17.9872 86.4167 17.9872H84.2377V29.1037ZM98.6596 33V14.0909H111.844V17.8026H103.23V21.6804H111.17V25.4013H103.23V29.2884H111.844V33H98.6596ZM114.706 33V14.0909H119.277V29.2884H127.143V33H114.706ZM138.154 21.8097V25.2812H129.401V21.8097H138.154ZM141.341 33V14.0909H149.152C150.568 14.0909 151.79 14.3679 152.818 14.9219C153.852 15.4697 154.649 16.236 155.209 17.2209C155.769 18.1996 156.049 19.3383 156.049 20.6371C156.049 21.942 155.763 23.0838 155.191 24.0625C154.624 25.035 153.815 25.7891 152.762 26.3246C151.71 26.8601 150.46 27.1278 149.014 27.1278H144.194V23.527H148.164C148.854 23.527 149.429 23.407 149.891 23.1669C150.359 22.9268 150.713 22.5914 150.953 22.1605C151.193 21.7235 151.313 21.2157 151.313 20.6371C151.313 20.0523 151.193 19.5476 150.953 19.1229C150.713 18.692 150.359 18.3596 149.891 18.1257C149.423 17.8918 148.848 17.7749 148.164 17.7749H145.912V33H141.341ZM162.873 14.0909V33H158.302V14.0909H162.873ZM165.677 33V30.3963L174.864 17.8026H165.686V14.0909H180.644V16.6946L171.457 29.2884H180.634V33H165.677ZM183.374 33V30.3963L192.561 17.8026H183.384V14.0909H198.341V16.6946L189.154 29.2884H198.332V33H183.374ZM205.226 33H200.314L206.694 14.0909H212.779L219.159 33H214.247L209.806 18.8551H209.658L205.226 33ZM204.571 25.5582H214.838V29.0298H204.571V25.5582Z" fill="#EB1700"/>
</svg>
