<svg width="98" height="16" viewBox="0 0 98 16" fill="none" xmlns="http://www.w3.org/2000/svg">
<path d="M42.1405 14H38.377V3.81818H42.1356C43.173 3.81818 44.0662 4.02202 44.8153 4.42969C45.5676 4.83404 46.1476 5.41738 46.5553 6.17969C46.963 6.93868 47.1668 7.84683 47.1668 8.90412C47.1668 9.96473 46.963 10.8762 46.5553 11.6385C46.151 12.4008 45.5726 12.9858 44.8202 13.3935C44.0679 13.7978 43.1746 14 42.1405 14ZM40.838 11.902H42.0461C42.6162 11.902 43.0984 11.8059 43.4928 11.6136C43.8905 11.4181 44.1905 11.1016 44.3927 10.6641C44.5982 10.2232 44.7009 9.6366 44.7009 8.90412C44.7009 8.17164 44.5982 7.5883 44.3927 7.15412C44.1872 6.71662 43.8839 6.40175 43.4829 6.20952C43.0851 6.01397 42.5946 5.91619 42.0113 5.91619H40.838V11.902ZM52.1732 14.1442C51.3744 14.1442 50.685 13.9867 50.105 13.6719C49.5283 13.3537 49.0842 12.9013 48.7726 12.3146C48.4644 11.7247 48.3103 11.0237 48.3103 10.2116C48.3103 9.42282 48.4661 8.73343 48.7776 8.14347C49.0892 7.55019 49.5283 7.08949 50.0951 6.76136C50.6618 6.42992 51.3297 6.2642 52.0986 6.2642C52.6422 6.2642 53.1394 6.34872 53.5901 6.51776C54.0409 6.68679 54.4303 6.93703 54.7584 7.26847C55.0866 7.59991 55.3418 8.00923 55.5241 8.49645C55.7064 8.98035 55.7975 9.53551 55.7975 10.1619V10.7685H49.1604V9.35653H53.5354C53.5321 9.09801 53.4708 8.86766 53.3515 8.66548C53.2322 8.4633 53.0681 8.30587 52.8593 8.19318C52.6538 8.07718 52.4168 8.01918 52.1483 8.01918C51.8766 8.01918 51.633 8.08049 51.4175 8.20312C51.2021 8.32244 51.0314 8.48651 50.9055 8.69531C50.7795 8.9008 50.7132 9.13447 50.7066 9.39631V10.8331C50.7066 11.1446 50.7679 11.4181 50.8905 11.6534C51.0132 11.8854 51.1872 12.0661 51.4126 12.1953C51.6379 12.3246 51.9064 12.3892 52.218 12.3892C52.4334 12.3892 52.6289 12.3594 52.8046 12.2997C52.9803 12.2401 53.1311 12.1522 53.257 12.0362C53.383 11.9202 53.4774 11.7777 53.5404 11.6087L55.7726 11.6733C55.6798 12.1738 55.476 12.6096 55.1611 12.9808C54.8496 13.3487 54.4403 13.6354 53.9331 13.8409C53.426 14.0431 52.8394 14.1442 52.1732 14.1442ZM59.4703 3.81818V14H57.0392V3.81818H59.4703ZM63.4488 3.81818V14H61.0177V3.81818H63.4488ZM64.9962 14V3.81818H69.2021C69.9645 3.81818 70.6224 3.96733 71.1759 4.26562C71.7327 4.56061 72.1619 4.97325 72.4635 5.50355C72.7651 6.03054 72.9159 6.6437 72.9159 7.34304C72.9159 8.04569 72.7618 8.66051 72.4536 9.1875C72.1486 9.71117 71.7128 10.1172 71.146 10.4055C70.5793 10.6939 69.9065 10.8381 69.1276 10.8381H66.5324V8.89915H68.6702C69.0414 8.89915 69.3513 8.83452 69.5999 8.70526C69.8518 8.57599 70.0423 8.39536 70.1716 8.16335C70.3009 7.92803 70.3655 7.65459 70.3655 7.34304C70.3655 7.02817 70.3009 6.75639 70.1716 6.5277C70.0423 6.29569 69.8518 6.11671 69.5999 5.99077C69.348 5.86482 69.0381 5.80185 68.6702 5.80185H67.4571V14H64.9962ZM76.0083 14.1293C75.521 14.1293 75.0885 14.0481 74.7107 13.8857C74.3361 13.7199 74.0395 13.4714 73.8208 13.1399C73.6053 12.8052 73.4976 12.3859 73.4976 11.8821C73.4976 11.4579 73.5722 11.0999 73.7213 10.8082C73.8705 10.5166 74.076 10.2796 74.3378 10.0973C74.5996 9.91501 74.9012 9.77746 75.2426 9.68466C75.584 9.58854 75.9486 9.52391 76.3364 9.49077C76.7706 9.45099 77.1202 9.40956 77.3854 9.36648C77.6505 9.32008 77.8428 9.25545 77.9621 9.17259C78.0847 9.08641 78.146 8.96544 78.146 8.80966V8.7848C78.146 8.52959 78.0582 8.33239 77.8825 8.19318C77.7069 8.05398 77.4699 7.98438 77.1716 7.98438C76.8501 7.98438 76.5916 8.05398 76.396 8.19318C76.2005 8.33239 76.0762 8.52462 76.0232 8.76989L73.781 8.69034C73.8473 8.22633 74.018 7.81203 74.2931 7.44744C74.5715 7.07955 74.9526 6.79119 75.4365 6.58239C75.9237 6.37027 76.5087 6.2642 77.1915 6.2642C77.6787 6.2642 78.1278 6.32221 78.5388 6.43821C78.9498 6.5509 79.3077 6.71662 79.6127 6.93537C79.9176 7.1508 80.1529 7.41596 80.3186 7.73082C80.4877 8.04569 80.5722 8.4053 80.5722 8.80966V14H78.2852V12.9361H78.2256C78.0897 13.1946 77.9157 13.4134 77.7036 13.5923C77.4948 13.7713 77.2478 13.9055 76.9628 13.995C76.6811 14.0845 76.3629 14.1293 76.0083 14.1293ZM76.759 12.5384C77.0208 12.5384 77.2561 12.4853 77.4649 12.3793C77.6771 12.2732 77.8461 12.1274 77.972 11.9418C78.098 11.7528 78.161 11.5341 78.161 11.2855V10.5597C78.0914 10.5961 78.0068 10.6293 77.9074 10.6591C77.8113 10.6889 77.7052 10.7171 77.5892 10.7436C77.4732 10.7701 77.3539 10.7933 77.2313 10.8132C77.1086 10.8331 76.991 10.8513 76.8783 10.8679C76.6496 10.9044 76.454 10.9607 76.2916 11.0369C76.1325 11.1132 76.0099 11.2126 75.9237 11.3352C75.8409 11.4545 75.7994 11.5971 75.7994 11.7628C75.7994 12.0147 75.8889 12.2069 76.0679 12.3395C76.2502 12.4721 76.4806 12.5384 76.759 12.5384ZM88.7256 8.69531L86.4933 8.75497C86.4701 8.59588 86.4072 8.45502 86.3044 8.33239C86.2017 8.20644 86.0674 8.10866 85.9017 8.03906C85.7393 7.96615 85.5504 7.92969 85.335 7.92969C85.0532 7.92969 84.8129 7.98603 84.6141 8.09872C84.4185 8.21141 84.3224 8.36387 84.3257 8.55611C84.3224 8.70526 84.3821 8.83452 84.5047 8.94389C84.6307 9.05327 84.8544 9.1411 85.1759 9.20739L86.6475 9.4858C87.4098 9.63163 87.9765 9.87358 88.3477 10.2116C88.7223 10.5497 88.9112 10.9972 88.9145 11.554C88.9112 12.0777 88.7554 12.5334 88.4472 12.9212C88.1423 13.3089 87.7246 13.6106 87.1943 13.826C86.664 14.0381 86.0575 14.1442 85.3747 14.1442C84.2843 14.1442 83.4242 13.9205 82.7945 13.473C82.1681 13.0223 81.8101 12.419 81.7206 11.6634L84.1219 11.6037C84.1749 11.8821 84.3125 12.0942 84.5345 12.2401C84.7566 12.3859 85.04 12.4588 85.3847 12.4588C85.6962 12.4588 85.9498 12.4008 86.1453 12.2848C86.3409 12.1688 86.4403 12.0147 86.4436 11.8224C86.4403 11.6501 86.3641 11.5125 86.2149 11.4098C86.0658 11.3037 85.8321 11.2209 85.5139 11.1612L84.1816 10.9077C83.4159 10.7685 82.8459 10.5116 82.4713 10.1371C82.0968 9.75923 81.9112 9.27865 81.9145 8.69531C81.9112 8.1849 82.0471 7.74905 82.3222 7.38778C82.5973 7.0232 82.9884 6.74479 83.4955 6.55256C84.0026 6.36032 84.6008 6.2642 85.2902 6.2642C86.3243 6.2642 87.1396 6.4813 87.7362 6.91548C88.3328 7.34635 88.6626 7.93963 88.7256 8.69531ZM96.7783 8.69531L94.5461 8.75497C94.5229 8.59588 94.4599 8.45502 94.3572 8.33239C94.2544 8.20644 94.1202 8.10866 93.9545 8.03906C93.7921 7.96615 93.6031 7.92969 93.3877 7.92969C93.106 7.92969 92.8657 7.98603 92.6668 8.09872C92.4713 8.21141 92.3751 8.36387 92.3785 8.55611C92.3751 8.70526 92.4348 8.83452 92.5574 8.94389C92.6834 9.05327 92.9071 9.1411 93.2286 9.20739L94.7002 9.4858C95.4625 9.63163 96.0293 9.87358 96.4005 10.2116C96.775 10.5497 96.9639 10.9972 96.9672 11.554C96.9639 12.0777 96.8082 12.5334 96.4999 12.9212C96.195 13.3089 95.7774 13.6106 95.2471 13.826C94.7168 14.0381 94.1102 14.1442 93.4275 14.1442C92.337 14.1442 91.4769 13.9205 90.8472 13.473C90.2208 13.0223 89.8628 12.419 89.7733 11.6634L92.1746 11.6037C92.2277 11.8821 92.3652 12.0942 92.5873 12.2401C92.8093 12.3859 93.0927 12.4588 93.4374 12.4588C93.749 12.4588 94.0025 12.4008 94.1981 12.2848C94.3936 12.1688 94.493 12.0147 94.4964 11.8224C94.493 11.6501 94.4168 11.5125 94.2677 11.4098C94.1185 11.3037 93.8849 11.2209 93.5667 11.1612L92.2343 10.9077C91.4687 10.7685 90.8986 10.5116 90.5241 10.1371C90.1495 9.75923 89.9639 9.27865 89.9672 8.69531C89.9639 8.1849 90.0998 7.74905 90.3749 7.38778C90.65 7.0232 91.0411 6.74479 91.5482 6.55256C92.0553 6.36032 92.6536 6.2642 93.343 6.2642C94.377 6.2642 95.1924 6.4813 95.789 6.91548C96.3856 7.34635 96.7153 7.93963 96.7783 8.69531Z" fill="#00838A"/>
<path d="M31.9933 11.4129C31.74 10.4114 31.137 9.5714 30.341 9.0585C30.8285 4.74563 26.8258 1.7662 26.8258 1.7662H27.0188C27.0496 1.7662 27.0803 1.76458 27.1095 1.76175C27.5487 1.7156 27.8911 1.33912 27.8911 0.882898C27.8911 0.426673 27.5487 0.0518161 27.1095 0.00445295C27.0803 0.00121444 27.0496 0 27.0188 0H24.9773C24.7211 0 24.5133 0.210503 24.5133 0.469583V0.976409H23.6191C23.4552 0.976409 23.3222 1.11121 23.3222 1.27719C23.3222 1.44316 23.4552 1.57796 23.6191 1.57796H24.5297C24.6056 1.71398 24.8118 1.7662 24.9773 1.7662H24.9145C25.1279 1.76458 25.3301 3.28465 25.3665 3.50528C25.4955 4.28171 25.5219 5.08041 25.456 5.86412C25.3285 7.37691 24.8178 9.12813 23.4129 9.91226C23.2374 10.0098 23.0512 10.09 22.8598 10.1507C21.9759 10.432 20.9705 10.247 20.3764 9.4868C19.5392 8.41404 19.4937 6.79924 19.4937 5.49372C19.4937 4.93062 19.0429 4.47319 18.4855 4.47319H17.0338C17.1828 4.69988 17.3159 4.93953 17.4274 5.18849C17.5093 5.3739 17.5796 5.56213 17.6351 5.7443C17.6555 5.81109 17.6731 5.87627 17.6907 5.94266L17.7099 6.01674C17.7215 6.06572 17.733 6.11308 17.7434 6.16207L17.7594 6.23898C17.7714 6.30132 17.783 6.36366 17.793 6.42722L17.7974 6.45677C17.8078 6.52802 17.8166 6.60048 17.8254 6.67335L17.8313 6.74135C17.8357 6.79762 17.8401 6.85268 17.8429 6.90733L17.8473 6.97534C17.8501 7.05104 17.8533 7.12674 17.8533 7.20203C17.8533 7.27773 17.8517 7.35343 17.8473 7.42873L17.8429 7.49714C17.8401 7.55179 17.8357 7.60684 17.8313 7.66149L17.8254 7.73112C17.8182 7.80358 17.8094 7.87645 17.7974 7.94891L17.793 7.98008C17.7842 8.0408 17.7726 8.10315 17.761 8.16508C17.7566 8.19059 17.7506 8.2169 17.745 8.2424C17.7346 8.28976 17.7243 8.33713 17.7127 8.38449L17.6951 8.45857C17.6775 8.5282 17.6583 8.59337 17.6395 8.65855C17.584 8.84233 17.5137 9.02895 17.4318 9.21557C17.2679 9.58598 17.0585 9.93412 16.8096 10.2527L16.8008 10.2648C16.7672 10.3078 16.7321 10.3507 16.6969 10.3936L16.6853 10.4069C16.5798 10.5312 16.4715 10.647 16.3588 10.7567L16.3253 10.7891C16.2901 10.8219 16.2549 10.8559 16.2186 10.8887L16.1862 10.9166C16.1203 10.9729 16.056 11.0291 15.9872 11.0826L15.9405 11.1198C15.9081 11.1449 15.8745 11.17 15.8394 11.1951L15.781 11.2368C15.7427 11.2647 15.7091 11.287 15.6771 11.3093C15.652 11.3255 15.5936 11.3639 15.5936 11.3639C15.5437 11.3967 15.4941 11.4279 15.443 11.4574C15.4134 11.4752 15.3826 11.4931 15.3507 11.5109C15.3199 11.5287 15.2907 11.5449 15.26 11.5598C15.2248 11.5789 15.1912 11.5951 15.1573 11.6129C15.1253 11.6295 15.0989 11.6428 15.0726 11.6546C15.0186 11.6813 14.9583 11.708 14.8999 11.7331C14.8839 11.7404 14.8296 11.7627 14.8296 11.7627C14.7872 11.7805 14.7449 11.7967 14.7009 11.8145L14.6234 11.8428C14.5763 11.8606 14.5295 11.8752 14.4828 11.8914L14.4212 11.9124C14.3553 11.9331 14.2897 11.9525 14.2222 11.9699L14.1579 11.9865C14.1111 11.9983 14.06 12.01 14.0084 12.0221C13.9853 12.0266 13.9617 12.0323 13.9369 12.0367C13.8798 12.0485 13.8182 12.059 13.7583 12.0695L13.7219 12.0752C13.6516 12.0857 13.5797 12.0946 13.5065 12.1035L13.445 12.1092C13.3911 12.1152 13.3355 12.1181 13.28 12.1225L13.2152 12.1258C13.1393 12.1286 13.0646 12.1314 12.9899 12.1314H11.8618C11.8514 12.2399 11.8442 12.348 11.8442 12.4577C11.8442 14.2931 13.3135 15.7808 15.1269 15.7808C16.9399 15.7808 18.4092 14.2931 18.4092 12.4577C18.4092 12.2946 18.3976 12.1359 18.3756 11.9788H25.2626C25.2406 12.1347 25.229 12.2946 25.229 12.4577C25.229 14.2931 26.6983 15.7808 28.5117 15.7808C30.325 15.7808 31.7943 14.2931 31.7943 12.4577C31.7943 12.1833 31.7604 11.9181 31.6992 11.6635C31.8543 11.7343 32.0385 11.5951 31.9933 11.4129Z" fill="#00838A"/>
<path d="M12.9869 11.3951C13.0512 11.3951 13.1144 11.3939 13.1787 11.3906C13.1975 11.3894 13.2151 11.3894 13.2343 11.3878C13.2826 11.385 13.3294 11.3817 13.3761 11.3773C13.3937 11.3761 13.4113 11.3744 13.4289 11.3728C13.4904 11.3671 13.5519 11.3582 13.6135 11.3493C13.6235 11.3477 13.6338 11.3465 13.6426 11.3449C13.6938 11.336 13.7449 11.3271 13.7961 11.3165C13.8153 11.3121 13.8356 11.3076 13.8548 11.3048C13.8988 11.2959 13.9427 11.2854 13.9851 11.2736C14.0027 11.2692 14.0203 11.2647 14.0378 11.2603C14.095 11.2457 14.1505 11.2291 14.2061 11.2113C14.2236 11.2056 14.2412 11.1996 14.2572 11.1939C14.2968 11.1805 14.3375 11.1672 14.3771 11.1522C14.3991 11.1449 14.421 11.136 14.443 11.1271C14.4798 11.1137 14.5161 11.0988 14.5529 11.0826C14.5733 11.0737 14.5925 11.0664 14.6128 11.0575C14.6628 11.0352 14.7123 11.0129 14.7623 10.989C14.7855 10.9773 14.809 10.9656 14.8322 10.9538C14.8618 10.9389 14.891 10.9239 14.9185 10.9093C14.9437 10.8959 14.9701 10.8826 14.9949 10.8676C15.0212 10.853 15.0476 10.8364 15.0752 10.8219C15.1179 10.7968 15.1603 10.77 15.2026 10.7433C15.2262 10.7283 15.251 10.7122 15.2742 10.6972C15.3021 10.6782 15.3301 10.6587 15.3577 10.6397C15.3769 10.6263 15.3945 10.613 15.4132 10.5996C15.4428 10.579 15.4704 10.5567 15.4995 10.5357C15.5143 10.5239 15.5275 10.5138 15.5423 10.5017C15.6034 10.4543 15.6622 10.4025 15.7205 10.3523C15.7265 10.3478 15.7309 10.3434 15.7369 10.3373C15.7677 10.309 15.7968 10.2827 15.8276 10.2527C15.8376 10.2438 15.8464 10.2349 15.8552 10.2248C15.9547 10.1284 16.0486 10.0276 16.1377 9.92115C16.1393 9.91953 16.1409 9.9167 16.1421 9.91508C16.1729 9.87946 16.202 9.84262 16.2316 9.80538C16.2344 9.80254 16.2372 9.79809 16.2388 9.79485C16.4494 9.52524 16.6268 9.22892 16.7671 8.91195C16.8346 8.75934 16.8945 8.60065 16.9441 8.43954C16.9617 8.38286 16.9764 8.32659 16.9908 8.27032C16.9968 8.24968 17.0012 8.22741 17.0072 8.20677C17.0172 8.16669 17.026 8.1254 17.0348 8.08532C17.0392 8.06306 17.0436 8.04241 17.048 8.02015C17.0584 7.96671 17.0687 7.91328 17.0759 7.85984C17.0775 7.85256 17.0787 7.84365 17.0803 7.83636C17.0891 7.77564 17.0963 7.7133 17.1035 7.65096C17.1051 7.63193 17.1079 7.6125 17.1095 7.59348C17.1139 7.54733 17.1167 7.49996 17.1199 7.4526C17.1211 7.43317 17.1227 7.41414 17.1227 7.39471C17.1255 7.33116 17.1271 7.26598 17.1271 7.20081C17.1271 7.13563 17.1255 7.07167 17.1227 7.0065C17.1211 6.98747 17.1211 6.96804 17.1199 6.94861C17.1167 6.90125 17.1139 6.8555 17.1095 6.80814C17.1079 6.78871 17.1067 6.76968 17.1035 6.75025C17.0979 6.68791 17.0891 6.62597 17.0803 6.56525C17.0787 6.55756 17.0775 6.54865 17.0759 6.54137C17.0672 6.48793 17.0584 6.4345 17.048 6.38146C17.0436 6.3592 17.0392 6.33855 17.0348 6.31629C17.026 6.27459 17.0172 6.23452 17.0072 6.19485C17.0012 6.1738 16.9968 6.15153 16.9908 6.13089C16.9764 6.07462 16.9605 6.01673 16.9441 5.96208C16.8945 5.80056 16.8346 5.64187 16.7671 5.48926C16.6268 5.17229 16.4482 4.87596 16.2388 4.60636C16.236 4.60353 16.2328 4.59907 16.2316 4.59583C16.202 4.559 16.1729 4.52175 16.1421 4.48613C16.1409 4.48491 16.1393 4.48168 16.1377 4.48046C16.1349 4.47722 16.1333 4.47439 16.1305 4.47318C16.0426 4.37076 15.9519 4.27158 15.8552 4.17807C15.8464 4.16916 15.8364 4.16025 15.8276 4.15013C15.7984 4.1218 15.7677 4.09387 15.7369 4.06553C15.7309 4.06108 15.7265 4.05662 15.7205 4.05055C15.6622 4.00035 15.6034 3.94854 15.5423 3.90117C15.5275 3.88903 15.5143 3.87891 15.4995 3.86717C15.472 3.84491 15.4428 3.82385 15.4132 3.80321C15.3945 3.78985 15.3769 3.77649 15.3577 3.76313C15.3301 3.74411 15.3021 3.72468 15.2742 3.70565C15.251 3.68905 15.2262 3.67448 15.2026 3.6595C15.1603 3.63278 15.1179 3.60607 15.0752 3.58097C15.0488 3.56477 15.0228 3.5498 14.9949 3.53522C14.9701 3.52025 14.9449 3.50689 14.9185 3.49353C14.8894 3.47895 14.8618 3.46398 14.8322 3.449C14.809 3.43726 14.7855 3.42552 14.7623 3.41378C14.7123 3.3899 14.664 3.36763 14.6128 3.34537C14.5937 3.33646 14.5733 3.32917 14.5529 3.32027C14.5161 3.30529 14.4798 3.29072 14.443 3.27574C14.421 3.26683 14.3991 3.25955 14.3771 3.25064C14.3375 3.23566 14.2984 3.2223 14.2572 3.20894C14.2396 3.20328 14.222 3.1972 14.2061 3.19154C14.1505 3.17372 14.0934 3.15713 14.0378 3.14255C14.0203 3.1381 14.0027 3.13365 13.9851 3.1292C13.9411 3.11867 13.8988 3.10855 13.8548 3.09802C13.8356 3.09357 13.8153 3.08912 13.7961 3.08629C13.7449 3.07576 13.6954 3.06685 13.6426 3.05795C13.6322 3.05633 13.6223 3.05511 13.6135 3.0535C13.5519 3.04459 13.492 3.0373 13.4289 3.03002C13.4113 3.0284 13.3937 3.02678 13.3761 3.02556C13.3294 3.02111 13.281 3.01787 13.2343 3.01504C13.2151 3.01342 13.1975 3.0122 13.1787 3.0122C13.1156 3.00897 13.0512 3.00775 12.9869 3.00775H1.03467L1.7871 4.00035C2.50118 4.93952 3.60605 5.49088 4.77686 5.49088H12.5026C12.5829 5.49088 12.6604 5.53217 12.7016 5.60179C12.7032 5.60341 12.7032 5.60503 12.7044 5.60625C12.7983 5.76332 12.6812 5.9637 12.4998 5.9637H4.3481L5.09893 6.95306C5.813 7.89263 6.91788 8.44358 8.08869 8.44358H13.7246C13.906 8.44358 14.0215 8.64397 13.9295 8.80103C13.9279 8.80225 13.9279 8.80387 13.9263 8.80549C13.8856 8.87511 13.8081 8.91641 13.7273 8.91641H7.65992L8.41076 9.90617C8.98298 10.6587 9.80694 11.1627 10.714 11.3331C10.9394 11.3744 11.1692 11.3983 11.4021 11.3983H12.9869V11.3951Z" fill="#00838A"/>
<path d="M1.81201 9.97745C1.81201 10.2276 2.01261 10.4292 2.25836 10.4292H6.56677C6.81412 10.4292 7.01312 10.2264 7.01312 9.97745C7.01312 9.72849 6.81252 9.52527 6.56677 9.52527H2.25836C2.01261 9.52406 1.81201 9.72687 1.81201 9.97745Z" fill="#00838A"/>
<path d="M2.91503 8.28534C2.91503 8.03476 2.71484 7.83357 2.46869 7.83357H0.446346C0.200596 7.83195 0 8.03476 0 8.28534C0 8.53551 0.200596 8.73711 0.446346 8.73711H2.46749C2.71604 8.73711 2.91503 8.5343 2.91503 8.28534Z" fill="#00838A"/>
<path d="M8.75295 11.2513C8.7002 11.2291 8.64146 11.2157 8.58152 11.2157H4.41217C4.16482 11.2157 3.96582 11.4189 3.96582 11.6679C3.96582 11.918 4.16642 12.1196 4.41217 12.1196H8.58032C8.82767 12.1196 9.02667 11.9168 9.02667 11.6679C9.02667 11.5448 8.97832 11.4351 8.9008 11.3537C8.85964 11.3108 8.80849 11.2752 8.75295 11.2513Z" fill="#00838A"/>
<path d="M1.89513 11.2173H1.45758C1.21023 11.2173 1.01123 11.4206 1.01123 11.6691C1.01123 11.9197 1.21143 12.1213 1.45758 12.1213H1.89513C2.14248 12.1213 2.34148 11.9181 2.34148 11.6691C2.34148 11.4189 2.14248 11.2173 1.89513 11.2173Z" fill="#00838A"/>
</svg>
